<?xml version="1.0" encoding="UTF-8"?>
<svg id="Layer_1" data-name="Layer 1" xmlns="http://www.w3.org/2000/svg" viewBox="0 0 130.79 178.4">
  <defs>
    <style>
      .cls-1 {
        fill: #df9c26;
      }

      .cls-2 {
        fill: #231f20;
      }

      .cls-3, .cls-4 {
        fill: #fff;
      }

      .cls-5 {
        stroke: #231f20;
        stroke-width: 6.34px;
      }

      .cls-5, .cls-6 {
        fill: none;
        stroke-miterlimit: 10;
      }

      .cls-6 {
        stroke: #fff;
        stroke-width: 2.54px;
      }

      .cls-7 {
        fill: #710f11;
      }

      .cls-4 {
        font-family: LucidaSans-TypewriterBold, PIUPLE+LucidaSans-TypewriterBold;
        font-size: 15.85px;
        font-style: italic;
        font-weight: 700;
      }
    </style>
  </defs>
  <text class="cls-4" transform="translate(85.91 126.37) rotate(58.84)"><tspan x="0" y="0">2024</tspan></text>
  <line class="cls-6" x1="79.37" y1="117.33" x2="92.96" y2="108.78"/>
  <path class="cls-7" d="M4.45,38.64v46.61c0,4.03,2.15,7.75,5.64,9.77l40.37,23.31c3.49,2.01,7.79,2.01,11.28,0l40.37-23.31c3.49-2.01,5.64-5.74,5.64-9.77v-46.61c0-4.03-2.15-7.75-5.64-9.77L61.74,5.57c-3.49-2.01-7.79-2.01-11.28,0L10.09,28.87c-3.49,2.01-5.64,5.74-5.64,9.77Z"/>
  <path class="cls-1" d="M2.99,60.19l.18,25.28c0,3.76,2.15,7.24,5.64,9.13l40.37,21.78c3.49,1.88,7.79,1.88,11.28,0l40.37-21.78c3.49-1.88,5.64-5.36,5.64-9.13l-.19-25.14-103.29-.15Z"/>
  <path class="cls-1" d="M105.23,60.33s-7.29-14.94-25.36-14.94-25.36,14.94-25.36,14.94h50.73Z"/>
  <path class="cls-7" d="M4.45,59.71s7.29,15.39,25.36,15.39c18.07,0,24.78-15.39,24.78-15.39H4.45Z"/>
  <path class="cls-5" d="M3.17,37.75v46.61c0,4.03,2.15,7.75,5.64,9.77l40.37,23.31c3.49,2.01,7.79,2.01,11.28,0l40.37-23.31c3.49-2.01,5.64-5.74,5.64-9.77v-46.61c0-4.03-2.15-7.75-5.64-9.77L60.45,4.68c-3.49-2.01-7.79-2.01-11.28,0L8.81,27.99c-3.49,2.01-5.64,5.74-5.64,9.77Z"/>
  <polygon class="cls-1" points="56.83 54.94 55.98 57.97 57.24 56.29 56.83 54.94"/>
  <rect class="cls-2" x="95.21" y="98" width="16.07" height="84.33" rx="4.54" ry="4.54" transform="translate(-58.81 76.58) rotate(-32.2)"/>
  <g>
    <path class="cls-3" d="M20.23,51.17l10.61,16.05v-16.2c0-1.05.23-1.84.68-2.37.45-.53,1.06-.79,1.83-.79s1.42.26,1.88.79c.46.53.69,1.32.69,2.37v21.42c0,2.39-.99,3.59-2.97,3.59-.5,0-.94-.07-1.34-.21-.4-.14-.77-.37-1.11-.68-.35-.31-.67-.67-.97-1.09-.3-.41-.59-.84-.89-1.27l-10.35-15.87v15.96c0,1.04-.24,1.83-.72,2.36s-1.1.8-1.86.8-1.41-.27-1.88-.81c-.47-.54-.71-1.32-.71-2.35v-21.01c0-.89.1-1.59.3-2.1.24-.56.63-1.01,1.17-1.37.54-.35,1.13-.53,1.77-.53.5,0,.92.08,1.27.24.35.16.66.38.93.65.27.27.54.63.82,1.06.28.43.57.89.86,1.36Z"/>
    <path class="cls-3" d="M61.24,71.27l-4.4-16.33-4.46,16.33c-.35,1.24-.62,2.13-.83,2.67s-.56,1.02-1.07,1.45c-.51.43-1.18.64-2.03.64-.68,0-1.24-.13-1.68-.38-.44-.25-.8-.61-1.07-1.08-.27-.46-.5-1.02-.67-1.65-.17-.64-.33-1.23-.46-1.77l-4.53-18.34c-.27-1.07-.41-1.88-.41-2.43,0-.71.25-1.3.74-1.78.5-.48,1.11-.72,1.84-.72,1,0,1.68.32,2.03.97.35.64.65,1.58.91,2.81l3.57,15.9,3.99-14.88c.3-1.14.56-2.01.8-2.6.24-.59.62-1.11,1.15-1.54.53-.43,1.26-.65,2.17-.65s1.65.23,2.16.68c.51.45.87.94,1.07,1.48.2.53.46,1.41.8,2.64l4.03,14.88,3.57-15.9c.17-.83.34-1.48.49-1.95.15-.47.42-.89.8-1.26.38-.37.93-.56,1.64-.56s1.33.24,1.83.72c.5.48.75,1.07.75,1.79,0,.51-.14,1.32-.41,2.43l-4.53,18.34c-.31,1.24-.57,2.15-.77,2.72s-.55,1.08-1.04,1.51c-.49.43-1.18.65-2.07.65-.84,0-1.52-.21-2.03-.63-.51-.42-.86-.89-1.06-1.42-.2-.53-.48-1.43-.84-2.7Z"/>
    <path class="cls-3" d="M92.32,72.48l-1.3-3.42h-11.07l-1.3,3.49c-.51,1.36-.94,2.28-1.3,2.76-.36.48-.95.72-1.77.72-.69,0-1.31-.25-1.84-.76-.53-.51-.8-1.08-.8-1.73,0-.37.06-.76.19-1.15.12-.4.33-.95.61-1.65l6.97-17.69c.2-.51.44-1.12.72-1.83.28-.71.58-1.3.89-1.77.32-.47.73-.85,1.24-1.14.51-.29,1.15-.44,1.9-.44s1.41.15,1.92.44c.51.29.93.67,1.24,1.12.32.46.58.95.8,1.48.22.53.49,1.23.83,2.11l7.12,17.58c.56,1.34.84,2.31.84,2.92s-.26,1.21-.79,1.74c-.53.53-1.16.79-1.9.79-.43,0-.81-.08-1.11-.23-.31-.16-.57-.37-.78-.63-.21-.27-.44-.68-.68-1.23-.24-.55-.45-1.04-.62-1.46ZM81.39,64.92h8.14l-4.11-11.24-4.03,11.24Z"/>
  </g>
  <path class="cls-3" d="M55.67,18.34l6.65,1.43s1.36.28,3.89,3.02c.02.02.04.04.06.07-.28-.12-1.16-.49-1.24-.57,0,0-.82,2.5-.42,3.16,0,0,.09.51,4.49,1.38,0,0,1.1.83,1.01,1.24,0,0,4.26,4.3,4.49,4.2,0,0-1.25.12-1.66.6,0,0,.8,1.03,4.07,1.15,0,0,6.48,4.59,12.24,6.6,0,0,1.06,1.07,5.96,1.72,0,0,.48-.06.42-.52,0,0,.72-.57-.04-1.1,0,0-4.15-8-10.35-12.34,0,0-.55-1.12-.82-2.82l-.32-1.59s0-1.18-1.54-.7l-2.6.28s-1.09.19-.65.43c0,0,.84.84.78.93,0,0-7.38-4.47-9.31-5.25,0,0-1.54-2.34-2.31-1.55,0,0,1.06,1.25-.15.49l-3.5-1.49s-.74-1.21-.89-1.32c0,0-2.03-4.55-2.84-5.62,0,0-.82-1.01-.84-.07l-1.55,4.59-3.36,2.51s-1.74.82.35,1.13ZM92.77,38.95c.24-.35.72-.43,1.06-.19s.43.72.19,1.06-.72.43-1.06.19-.43-.72-.19-1.06ZM83.52,35.31s2.14.91,3.68,3.23c0,0-1.21-.02-1.32.17l-1.87-.81s-.92-1.62-.48-2.59ZM63.75,17.95c4.1,2.72,19.36,13.09,23.12,15.65.57.39.82,1.11.59,1.76-.82,2.25-2.9.25-2.9.25-.97-.61-21.23-17.19-21.23-17.19-1.54-1.71.42-.47.42-.47Z"/>
  <text class="cls-4" transform="translate(85.91 126.37) rotate(58.84)"><tspan x="0" y="0">2024</tspan></text>
  <line class="cls-6" x1="79.15" y1="117.47" x2="93.09" y2="108.7"/>
  <line class="cls-6" x1="109.92" y1="166.12" x2="123.76" y2="157.37"/>
</svg>