<?xml version="1.0" encoding="UTF-8"?>
<svg id="Layer_1" data-name="Layer 1" xmlns="http://www.w3.org/2000/svg" viewBox="0 0 445.64 374.54">
  <defs>
    <style>
      .cls-1 {
        stroke: #231f20;
        stroke-width: 6.17px;
      }

      .cls-1, .cls-2 {
        fill: none;
        stroke-miterlimit: 10;
      }

      .cls-3 {
        fill: #231f20;
      }

      .cls-4, .cls-5 {
        fill: #fff;
      }

      .cls-5 {
        font-family: LucidaSans-TypewriterBold, VQCFKX+LucidaSans-TypewriterBold;
        font-size: 15.42px;
        font-style: italic;
        font-weight: 700;
      }

      .cls-2 {
        stroke: #fff;
        stroke-width: 2.47px;
      }
    </style>
  </defs>
  <text class="cls-5" transform="translate(402.01 323.95) rotate(58.84)"><tspan x="0" y="0">2024</tspan></text>
  <line class="cls-2" x1="395.65" y1="315.16" x2="408.87" y2="306.84"/>
  <path d="M322.8,238.64v45.32c0,3.92,2.09,7.54,5.48,9.5l39.25,22.66c3.39,1.96,7.57,1.96,10.96,0l39.25-22.66c3.39-1.96,5.48-5.58,5.48-9.5v-45.32c0-3.92-2.09-7.54-5.48-9.5l-39.25-22.66c-3.39-1.96-7.57-1.96-10.96,0l-39.25,22.66c-3.39,1.96-5.48,5.58-5.48,9.5Z"/>
  <path d="M321.38,259.59l.18,24.58c0,3.66,2.09,7.04,5.48,8.87l39.25,21.18c3.39,1.83,7.57,1.83,10.96,0l39.25-21.18c3.39-1.83,5.48-5.21,5.48-8.87l-.18-24.44-100.43-.14Z"/>
  <path d="M420.8,259.74s-7.09-14.53-24.66-14.53-24.66,14.53-24.66,14.53h49.32Z"/>
  <path d="M322.8,259.57s7.09,14.53,24.66,14.53c17.57,0,24.09-14.53,24.09-14.53h-48.75Z"/>
  <path class="cls-1" d="M321.56,237.78v45.32c0,3.92,2.09,7.54,5.48,9.5l39.25,22.66c3.39,1.96,7.57,1.96,10.96,0l39.25-22.66c3.39-1.96,5.48-5.58,5.48-9.5v-45.32c0-3.92-2.09-7.54-5.48-9.5l-39.25-22.66c-3.39-1.96-7.57-1.96-10.96,0l-39.25,22.66c-3.39,1.96-5.48,5.58-5.48,9.5Z"/>
  <polygon class="cls-4" points="373.73 254.5 372.91 257.44 374.13 255.8 373.73 254.5"/>
  <rect class="cls-3" x="411.05" y="296.36" width="15.62" height="82" rx="4.42" ry="4.42" transform="translate(-115.35 275.1) rotate(-32.2)"/>
  <g>
    <path class="cls-4" d="M338.15,250.83l10.32,15.61v-15.75c0-1.02.22-1.79.66-2.3.44-.51,1.03-.77,1.78-.77s1.38.26,1.82.77c.45.51.67,1.28.67,2.3v20.83c0,2.32-.96,3.49-2.89,3.49-.48,0-.92-.07-1.3-.21-.39-.14-.75-.36-1.08-.66-.34-.3-.65-.65-.94-1.06-.29-.4-.58-.82-.87-1.24l-10.06-15.43v15.52c0,1.01-.23,1.78-.7,2.29s-1.07.78-1.81.78-1.37-.26-1.82-.79c-.46-.52-.69-1.29-.69-2.29v-20.43c0-.87.1-1.55.29-2.04.23-.54.61-.98,1.14-1.33.53-.34,1.1-.51,1.72-.51.48,0,.89.08,1.24.23.34.16.64.37.9.63.26.26.52.61.79,1.03.27.42.55.86.84,1.32Z"/>
    <path class="cls-4" d="M378.02,270.38l-4.28-15.88-4.34,15.88c-.34,1.2-.61,2.07-.8,2.59s-.54.99-1.04,1.41c-.49.42-1.15.62-1.97.62-.66,0-1.21-.12-1.63-.37-.43-.25-.77-.6-1.04-1.05-.26-.45-.48-.99-.65-1.61-.17-.62-.32-1.2-.45-1.73l-4.41-17.83c-.26-1.04-.4-1.82-.4-2.37,0-.69.24-1.26.72-1.73.48-.47,1.08-.7,1.79-.7.98,0,1.63.31,1.97.94.34.63.63,1.54.89,2.73l3.47,15.46,3.88-14.47c.29-1.11.55-1.95.78-2.53.23-.58.6-1.08,1.12-1.5.52-.42,1.22-.63,2.11-.63s1.6.22,2.1.66c.5.44.85.92,1.04,1.44.19.52.45,1.37.78,2.57l3.92,14.47,3.47-15.46c.17-.81.33-1.44.48-1.9.15-.46.41-.87.78-1.23.37-.36.9-.54,1.6-.54s1.29.23,1.78.7c.49.46.73,1.05.73,1.74,0,.49-.13,1.28-.4,2.37l-4.41,17.83c-.3,1.2-.55,2.09-.75,2.65s-.54,1.05-1.01,1.47c-.48.42-1.15.63-2.01.63-.82,0-1.48-.21-1.97-.61-.49-.41-.84-.87-1.03-1.38-.19-.51-.46-1.39-.81-2.63Z"/>
    <path class="cls-4" d="M408.24,271.55l-1.26-3.32h-10.77l-1.26,3.4c-.49,1.33-.92,2.22-1.26,2.68-.35.46-.92.7-1.72.7-.68,0-1.27-.25-1.79-.74-.52-.49-.78-1.05-.78-1.68,0-.36.06-.73.18-1.12.12-.39.32-.92.6-1.61l6.77-17.2c.19-.49.42-1.09.7-1.78.27-.69.56-1.27.87-1.73.31-.46.71-.83,1.21-1.11.5-.28,1.12-.42,1.85-.42s1.37.14,1.87.42c.5.28.9.65,1.21,1.09.31.45.57.92.78,1.44.21.51.48,1.2.8,2.05l6.92,17.09c.54,1.3.81,2.25.81,2.84s-.26,1.18-.77,1.69c-.51.51-1.13.77-1.85.77-.42,0-.78-.08-1.08-.23-.3-.15-.55-.35-.76-.61-.21-.26-.42-.66-.66-1.19-.23-.54-.44-1.01-.61-1.42ZM397.62,264.2h7.91l-3.99-10.93-3.92,10.93Z"/>
  </g>
  <path class="cls-4" d="M372.6,218.91l6.46,1.39s1.32.27,3.78,2.94c.02.02.04.04.06.07-.27-.11-1.13-.47-1.2-.55,0,0-.8,2.43-.41,3.07,0,0,.09.49,4.37,1.34,0,0,1.07.81.98,1.21,0,0,4.15,4.18,4.37,4.09,0,0-1.21.12-1.61.58,0,0,.78,1,3.96,1.11,0,0,6.3,4.46,11.9,6.41,0,0,1.03,1.04,5.79,1.68,0,0,.47-.06.41-.51,0,0,.7-.56-.04-1.07,0,0-4.04-7.77-10.06-12,0,0-.54-1.08-.8-2.75l-.31-1.54s0-1.14-1.5-.68l-2.53.27s-1.06.19-.63.42c0,0,.82.82.76.9,0,0-7.17-4.35-9.05-5.1,0,0-1.5-2.28-2.25-1.51,0,0,1.03,1.21-.15.48l-3.4-1.44s-.72-1.18-.87-1.28c0,0-1.97-4.43-2.76-5.47,0,0-.79-.98-.81-.07l-1.51,4.47-3.27,2.44s-1.69.79.34,1.1ZM408.68,238.95c.23-.34.7-.42,1.03-.18s.42.7.18,1.03-.7.42-1.03.18-.42-.7-.18-1.03ZM399.68,235.41s2.08.88,3.58,3.14c0,0-1.17-.02-1.29.17l-1.82-.79s-.89-1.58-.47-2.51ZM380.46,218.53c3.98,2.64,18.83,12.73,22.49,15.22.55.38.8,1.08.57,1.71-.8,2.19-2.82.24-2.82.24-.94-.59-20.65-16.72-20.65-16.72-1.5-1.66.41-.46.41-.46Z"/>
  <text class="cls-5" transform="translate(402.01 323.95) rotate(58.84)"><tspan x="0" y="0">2024</tspan></text>
  <line class="cls-2" x1="395.65" y1="315.16" x2="408.87" y2="306.84"/>
  <line class="cls-2" x1="425.47" y1="362.52" x2="438.68" y2="354.17"/>
  <path class="cls-4" d="M317.64,261.98c9.95,11.98,30.9,18.09,47.63,3.2,2.55-2.35,4.12-4.78,5.69-7.38.97-1.36,7.99-10.35,20.65-12.86,11.72-2.85,26.92,2.14,33.55,12.05.26.64.34,1.21.3,1.5-.08.61-.49-.16-1.34-.87-5.27-4.85-13.47-11.22-21.85-11.6-8.21-.94-17.39.27-24.46,7.12-2.26,2.1-3.89,4.21-5.3,6.53-.71,1.42-5.97,10.85-18.24,14.27-12.3,3.63-30.21-.06-36.55-10.05-.14-.51-.08-1.22-.08-1.74v-.17Z"/>
</svg>